HIERARCHY
ROOT SimulationBone
{
	OFFSET 0.000000 0.000000 0.000000
	CHANNELS 6 Xposition Yposition Zposition Zrotation Yrotation Xrotation 
	JOINT Hips
	{
		OFFSET 0.000000 0.000000 0.000000
		CHANNELS 6 Xposition Yposition Zposition Zrotation Yrotation Xrotation 
		JOINT LeftUpLeg
		{
			OFFSET 0.103462 1.857831 10.548502
			CHANNELS 3 Zrotation Yrotation Xrotation
			JOINT LeftLeg
			{
				OFFSET 43.500008 -0.000027 -0.000004
				CHANNELS 3 Zrotation Yrotation Xrotation
				JOINT LeftFoot
				{
					OFFSET 42.372200 0.000011 -0.000002
					CHANNELS 3 Zrotation Yrotation Xrotation
					JOINT LeftToe
					{
						OFFSET 17.299999 -0.000001 -0.000002
						CHANNELS 3 Zrotation Yrotation Xrotation
						End Site
						{
							OFFSET 0.000000 0.000000 0.000000
						}
					}
				}
			}
		}
		JOINT RightUpLeg
		{
			OFFSET 0.103458 1.857828 -10.548501
			CHANNELS 3 Zrotation Yrotation Xrotation
			JOINT RightLeg
			{
				OFFSET 43.500038 -0.000031 0.000011
				CHANNELS 3 Zrotation Yrotation Xrotation
				JOINT RightFoot
				{
					OFFSET 42.372257 -0.000004 0.000010
					CHANNELS 3 Zrotation Yrotation Xrotation
					JOINT RightToe
					{
						OFFSET 17.299994 -0.000005 0.000004
						CHANNELS 3 Zrotation Yrotation Xrotation
						End Site
						{
							OFFSET 0.000000 0.000000 0.000000
						}
					}
				}
			}
		}
		JOINT Spine
		{
			OFFSET 6.901966 -2.603733 0.000000
			CHANNELS 3 Zrotation Yrotation Xrotation
			JOINT Spine1
			{
				OFFSET 12.588101 0.000002 0.000000
				CHANNELS 3 Zrotation Yrotation Xrotation
				JOINT Spine2
				{
					OFFSET 12.343201 0.000004 -0.000002
					CHANNELS 3 Zrotation Yrotation Xrotation
					JOINT Neck
					{
						OFFSET 25.832895 -0.000004 0.000002
						CHANNELS 3 Zrotation Yrotation Xrotation
						JOINT Head
						{
							OFFSET 11.766604 0.000011 0.000001
							CHANNELS 3 Zrotation Yrotation Xrotation
							End Site
							{
								OFFSET 0.000000 0.000000 0.000000
							}
						}
					}
					JOINT LeftShoulder
					{
						OFFSET 19.745903 -1.480368 6.000108
						CHANNELS 3 Zrotation Yrotation Xrotation
						JOINT LeftArm
						{
							OFFSET 11.284126 -0.000007 -0.000022
							CHANNELS 3 Zrotation Yrotation Xrotation
							JOINT LeftForeArm
							{
								OFFSET 33.000053 0.000001 0.000028
								CHANNELS 3 Zrotation Yrotation Xrotation
								JOINT LeftHand
								{
									OFFSET 25.200005 0.000019 0.000013
									CHANNELS 3 Zrotation Yrotation Xrotation
									End Site
									{
										OFFSET 0.000000 0.000000 0.000000
									}
								}
							}
						}
					}
					JOINT RightShoulder
					{
						OFFSET 19.746094 -1.480373 -6.000072
						CHANNELS 3 Zrotation Yrotation Xrotation
						JOINT RightArm
						{
							OFFSET 11.284138 -0.000017 -0.000010
							CHANNELS 3 Zrotation Yrotation Xrotation
							JOINT RightForeArm
							{
								OFFSET 33.000092 0.000013 0.000009
								CHANNELS 3 Zrotation Yrotation Xrotation
								JOINT RightHand
								{
									OFFSET 25.199776 0.000139 0.000415
									CHANNELS 3 Zrotation Yrotation Xrotation
									End Site
									{
										OFFSET 0.000000 0.000000 0.000000
									}
								}
							}
						}
					}
				}
			}
		}
	}
}
MOTION
Frames: 5
Frame Time: 0.016667
-255.777755 0.000000 8.066412 180.000000 -28.759622 180.000000 -0.488360 85.600433 2.317356 93.631063 7.138648 175.264931 -179.317095 -2.450395 -178.251886 -55.687761 -2.643843 -0.900054 70.309331 0.226032 -1.359733 21.454555 0.003094 -0.000000 156.559574 -3.391009 176.110567 -32.237723 4.861832 -3.054995 72.905438 2.188570 0.431194 21.454558 -0.003105 -0.000017 8.594670 1.666611 -1.353096 7.140849 3.413223 -2.602107 6.822509 3.397589 -2.622666 -19.561214 -0.747576 -2.331483 -12.122288 7.685828 -5.014203 140.618943 -84.701970 38.013242 -5.314297 66.930236 14.708067 -129.683694 -0.550335 4.020827 -15.812472 -7.184411 43.144938 -150.750292 68.561771 31.556213 2.393663 -39.596436 -40.609893 -40.454103 15.577630 -1.535407 6.798947 -10.164726 -24.495961 
-256.953892 0.000000 8.635867 180.000000 -27.637447 180.000000 0.213142 84.849213 2.510158 95.112166 7.871830 176.370918 178.941396 -3.939948 179.935695 -63.249075 -1.607545 0.713165 67.866294 -2.174936 -4.530398 21.454552 0.003093 -0.000000 157.011809 -4.755848 176.540161 -36.612935 3.900341 -2.991299 76.184920 2.160678 0.550449 21.454558 -0.003110 -0.000017 8.816006 1.796904 -1.069814 7.590730 3.659874 -2.020617 7.272155 3.647751 -2.042692 -19.711601 -1.401015 -2.303733 -12.207239 7.884196 -5.286250 147.851425 -84.842482 30.731360 -2.389639 67.643902 17.811901 -131.492211 -0.590294 4.086522 -18.013064 -8.675295 43.552240 -152.119205 68.690442 30.139367 -1.478745 -40.152296 -37.122779 -39.560150 15.319741 -1.492145 6.931229 -9.744297 -25.521174 
-258.155757 0.000000 9.269753 180.000000 -26.788465 180.000000 0.857732 84.255577 2.669974 96.742879 8.419595 177.630336 177.312367 -5.269301 178.740641 -69.756885 -0.567486 1.515628 65.015907 -3.508249 -5.982980 21.454550 0.003093 0.000002 158.198287 -5.586108 176.285311 -39.858326 3.929301 -2.627113 79.047506 1.904251 0.571606 21.454558 -0.003109 -0.000017 9.098333 1.948811 -0.869963 8.160982 3.953916 -1.601341 7.842206 3.944317 -1.625214 -19.624062 -2.081607 -2.260417 -13.024600 7.883102 -5.547130 158.075476 -84.305075 20.468859 0.846245 67.727900 20.983418 -132.438692 -0.696062 4.130605 -20.023439 -10.031683 43.974318 -154.477773 68.618871 27.705813 -6.133219 -40.154883 -33.980026 -37.787863 15.174278 -1.440280 7.052435 -8.688965 -25.317459 
-259.380813 0.000000 9.963563 180.000000 -26.181381 180.000000 1.411631 83.822673 2.776268 98.343675 8.744140 178.952145 175.624946 -6.300872 178.071364 -75.236021 0.351597 1.608804 62.711238 -3.877306 -6.270313 21.454548 0.003093 0.000004 159.863364 -5.880638 175.897952 -42.145699 4.455416 -2.280842 81.517043 1.620526 0.513235 21.454557 -0.003105 -0.000017 9.384043 2.090681 -0.706053 8.737993 4.228524 -1.253049 8.419042 4.221018 -1.278600 -19.333421 -2.695534 -2.315946 -14.216512 7.785920 -5.875985 167.430187 -83.333768 11.075842 4.041682 67.389308 23.865635 -132.310100 -0.821238 4.137816 -21.633806 -11.056159 44.518578 -157.102949 68.476135 24.996777 -11.050556 -39.984855 -30.996646 -35.525937 15.062642 -1.380291 7.258432 -7.455866 -24.435809 
-260.626522 0.000000 10.712793 180.000000 -25.790202 180.000000 1.840941 83.553650 2.806898 99.731560 8.822959 -179.764140 173.716436 -6.905895 177.834616 -79.690336 1.077687 1.094256 61.988344 -3.425231 -5.936587 21.454550 0.003092 0.000005 161.735410 -5.663187 175.949102 -43.646151 4.961519 -2.198194 83.616855 1.506643 0.412652 21.454557 -0.003102 -0.000017 9.615539 2.190809 -0.531175 9.207914 4.416774 -0.886896 8.888834 4.411472 -0.913598 -18.872542 -3.147242 -2.582771 -15.425958 7.696023 -6.353820 175.093647 -82.272127 3.363426 6.977220 66.852318 26.232966 -130.893307 -0.917716 4.090467 -22.630029 -11.550680 45.278296 -159.342766 68.431061 22.682506 -15.817079 -40.030361 -27.873420 -33.164051 14.906869 -1.315108 7.624857 -6.502952 -23.423230 
